<svg width="185" height="33" viewBox="0 0 185 33" fill="none" xmlns="http://www.w3.org/2000/svg">
<path d="M15.5489 2.92705C15.8483 2.00574 17.1517 2.00574 17.4511 2.92705L19.98 10.7102C20.1138 11.1223 20.4978 11.4012 20.931 11.4012H29.1147C30.0835 11.4012 30.4862 12.6408 29.7025 13.2102L23.0818 18.0205C22.7313 18.2752 22.5846 18.7265 22.7185 19.1385L25.2474 26.9217C25.5468 27.843 24.4923 28.6092 23.7086 28.0398L17.0878 23.2295C16.7373 22.9748 16.2627 22.9748 15.9122 23.2295L9.29144 28.0398C8.50773 28.6092 7.45325 27.843 7.7526 26.9217L10.2815 19.1385C10.4154 18.7265 10.2687 18.2752 9.91824 18.0205L3.29747 13.2102C2.51375 12.6408 2.91653 11.4012 3.88525 11.4012H12.069C12.5022 11.4012 12.8862 11.1223 13.02 10.7102L15.5489 2.92705Z" fill="#FFB901"/>
<path d="M53.5489 2.92705C53.8483 2.00574 55.1517 2.00574 55.4511 2.92705L57.98 10.7102C58.1138 11.1223 58.4978 11.4012 58.931 11.4012H67.1147C68.0835 11.4012 68.4862 12.6408 67.7025 13.2102L61.0818 18.0205C60.7313 18.2752 60.5846 18.7265 60.7185 19.1385L63.2474 26.9217C63.5468 27.843 62.4923 28.6092 61.7086 28.0398L55.0878 23.2295C54.7373 22.9748 54.2627 22.9748 53.9122 23.2295L47.2914 28.0398C46.5077 28.6092 45.4532 27.843 45.7526 26.9217L48.2815 19.1385C48.4154 18.7265 48.2687 18.2752 47.9182 18.0205L41.2975 13.2102C40.5138 12.6408 40.9165 11.4012 41.8853 11.4012H50.069C50.5022 11.4012 50.8862 11.1223 51.02 10.7102L53.5489 2.92705Z" fill="#FFB901"/>
<path d="M91.5489 2.92705C91.8483 2.00574 93.1517 2.00574 93.4511 2.92705L95.98 10.7102C96.1138 11.1223 96.4978 11.4012 96.931 11.4012H105.115C106.083 11.4012 106.486 12.6408 105.703 13.2102L99.0818 18.0205C98.7313 18.2752 98.5846 18.7265 98.7185 19.1385L101.247 26.9217C101.547 27.843 100.492 28.6092 99.7086 28.0398L93.0878 23.2295C92.7373 22.9748 92.2627 22.9748 91.9122 23.2295L85.2914 28.0398C84.5077 28.6092 83.4532 27.843 83.7526 26.9217L86.2815 19.1385C86.4154 18.7265 86.2687 18.2752 85.9182 18.0205L79.2975 13.2102C78.5138 12.6408 78.9165 11.4012 79.8853 11.4012H88.069C88.5022 11.4012 88.8862 11.1223 89.02 10.7102L91.5489 2.92705Z" fill="#FFB901"/>
<path d="M129.549 2.92705C129.848 2.00574 131.152 2.00574 131.451 2.92705L133.98 10.7102C134.114 11.1223 134.498 11.4012 134.931 11.4012H143.115C144.083 11.4012 144.486 12.6408 143.703 13.2102L137.082 18.0205C136.731 18.2752 136.585 18.7265 136.718 19.1385L139.247 26.9217C139.547 27.843 138.492 28.6092 137.709 28.0398L131.088 23.2295C130.737 22.9748 130.263 22.9748 129.912 23.2295L123.291 28.0398C122.508 28.6092 121.453 27.843 121.753 26.9217L124.282 19.1385C124.415 18.7265 124.269 18.2752 123.918 18.0205L117.297 13.2102C116.514 12.6408 116.917 11.4012 117.885 11.4012H126.069C126.502 11.4012 126.886 11.1223 127.02 10.7102L129.549 2.92705Z" fill="#FFB901"/>
<path d="M167.549 2.92705C167.848 2.00574 169.152 2.00574 169.451 2.92705L171.98 10.7102C172.114 11.1223 172.498 11.4012 172.931 11.4012H181.115C182.083 11.4012 182.486 12.6408 181.703 13.2102L175.082 18.0205C174.731 18.2752 174.585 18.7265 174.718 19.1385L177.247 26.9217C177.547 27.843 176.492 28.6092 175.709 28.0398L169.088 23.2295C168.737 22.9748 168.263 22.9748 167.912 23.2295L161.291 28.0398C160.508 28.6092 159.453 27.843 159.753 26.9217L162.282 19.1385C162.415 18.7265 162.269 18.2752 161.918 18.0205L155.297 13.2102C154.514 12.6408 154.917 11.4012 155.885 11.4012H164.069C164.502 11.4012 164.886 11.1223 165.02 10.7102L167.549 2.92705Z" fill="#FFB901"/>
</svg>
